Coordinates
version=1
nRows=60
nColumns=12
inDegrees=yes

Units are S.I. units (second, meters, Newtons, ...)
Angles are in degrees

endheader
time	SC_y	SC_z	SC_x	AC_y	AC_z	AC_x	GH_y	GH_z	GH_yy	EL_x	PS_y
       0.0              -35.78          8.202          77.17          44.65         -6.001          1.657          170.8          29.06         -176.2          70.75          105.0
   0.01498              -35.77            8.2          77.16          44.65         -6.003          1.657          170.8          29.06         -176.1          70.76          105.0
   0.02996              -35.77          8.199          77.15          44.65         -6.005          1.657          170.8          29.05         -176.1          70.76          105.0
   0.04494              -35.77          8.197          77.14          44.66         -6.007          1.657          170.7          29.04         -176.0          70.76          105.0
   0.05992              -35.77          8.196          77.13          44.66         -6.009          1.657          170.7          29.03         -175.9          70.77          105.0
   0.07491              -35.76          8.194          77.12          44.66         -6.011          1.657          170.7          29.02         -175.9          70.77          105.0
   0.08989              -35.76          8.192           77.1          44.66         -6.013          1.657          170.6          29.01         -175.8          70.77          105.0
    0.1049              -35.76           8.19          77.09          44.67         -6.016          1.657          170.6           29.0         -175.7          70.78          105.0
    0.1198              -35.75          8.187          77.08          44.67         -6.018          1.657          170.6          28.99         -175.6          70.78          105.0
    0.1348              -35.75          8.185          77.06          44.67         -6.021          1.657          170.5          28.98         -175.6          70.79          105.1
    0.1498              -35.75          8.182          77.04          44.68         -6.024          1.657          170.5          28.97         -175.5          70.79          105.1
    0.1648              -35.74          8.179          77.03          44.68         -6.027          1.657          170.4          28.95         -175.4           70.8          105.1
    0.1798              -35.74          8.176          77.01          44.69         -6.031          1.657          170.4          28.94         -175.3           70.8          105.1
    0.1948              -35.73          8.173          76.98          44.69         -6.035          1.657          170.3          28.92         -175.1          70.81          105.1
    0.2097              -35.73           8.17          76.96          44.69         -6.039          1.657          170.3          28.91         -175.0          70.82          105.1
    0.2247              -35.72          8.166          76.94           44.7         -6.043          1.657          170.2          28.89         -174.9          70.83          105.1
    0.2397              -35.71          8.162          76.91          44.71         -6.048          1.658          170.1          28.87         -174.7          70.83          105.1
    0.2547               -35.7          8.157          76.88          44.71         -6.054          1.658          170.0          28.85         -174.6          70.84          105.1
    0.2697               -35.7          8.152          76.85          44.72         -6.059          1.658          169.9          28.82         -174.4          70.85          105.1
    0.2846              -35.69          8.147          76.81          44.73         -6.066          1.658          169.8           28.8         -174.2          70.86          105.2
    0.2996              -35.68          8.141          76.77          44.73         -6.073          1.658          169.7          28.77         -174.0          70.88          105.2
    0.3146              -35.67          8.134          76.73          44.74          -6.08          1.658          169.6          28.74         -173.7          70.89          105.2
    0.3296              -35.66          8.127          76.68          44.75         -6.089          1.658          169.5           28.7         -173.5           70.9          105.2
    0.3446              -35.64          8.119          76.63          44.76         -6.098          1.658          169.4          28.66         -173.2          70.92          105.2
    0.3595              -35.63           8.11          76.58          44.78         -6.109          1.658          169.2          28.62         -172.9          70.94          105.3
    0.3745              -35.61            8.1          76.51          44.79          -6.12          1.658          169.0          28.57         -172.5          70.96          105.3
    0.3895              -35.59          8.089          76.44          44.81         -6.133          1.658          168.8          28.52         -172.1          70.98          105.3
    0.4045              -35.57          8.076          76.36          44.82         -6.148          1.658          168.6          28.46         -171.7           71.0          105.4
    0.4195              -35.55          8.062          76.27          44.84         -6.165          1.659          168.4          28.39         -171.2          71.03          105.4
    0.4345              -35.53          8.046          76.16          44.86         -6.183          1.659          168.1          28.31         -170.6          71.06          105.4
    0.4494               -35.5          8.028          76.04          44.89         -6.205          1.659          167.8          28.22         -169.9           71.1          105.5
    0.4644              -35.46          8.007          75.91          44.92          -6.23          1.659          167.4          28.12         -169.2          71.14          105.6
    0.4794              -35.42          7.982          75.75          44.95         -6.258           1.66          167.0           28.0         -168.3          71.19          105.6
    0.4944              -35.38          7.954          75.56          44.99         -6.291           1.66          166.5          27.87         -167.3          71.25          105.7
    0.5094              -35.32          7.921          75.35          45.04          -6.33           1.66          165.9          27.71         -166.1          71.31          105.8
    0.5243              -35.26          7.882           75.1          45.09         -6.376          1.661          165.2          27.52         -164.7          71.39          105.9
    0.5393              -35.18          7.836           74.8          45.15          -6.43          1.661          164.4          27.29         -163.1          71.48          106.0
    0.5543              -35.09           7.78          74.44          45.23         -6.495          1.662          163.4          27.03         -161.1          71.59          106.2
    0.5693              -34.99          7.713           74.0          45.32         -6.573          1.663          162.2           26.7         -158.7          71.73          106.4
    0.5843              -34.85          7.631          73.47          45.44         -6.669          1.664          160.8          26.31         -155.7          71.89          106.6
    0.5992              -34.69           7.53          72.81          45.58         -6.788          1.665          159.0          25.82         -152.1          72.09          106.9
    0.6142              -34.48          7.403          71.99          45.75         -6.936          1.666          156.8          25.21         -147.6          72.35          107.3
    0.6292              -34.23          7.244          70.96          45.97         -7.122          1.668          154.0          24.44         -141.9          72.66          107.7
    0.6442               -33.9          7.042          69.65          46.25         -7.359           1.67          150.4          23.46         -134.7          73.07          108.3
    0.6592              -33.48          6.783          67.97           46.6         -7.662          1.673          145.9          22.21         -125.4          73.58          109.0
    0.6742              -32.94          6.451          65.82          47.06         -8.051          1.677          140.1          20.61         -113.5          74.24          110.0
    0.6891              -32.25          6.026          63.07          47.65         -8.547          1.682          132.6          18.56         -98.36          75.09          111.2
    0.7041              -31.39          5.493          59.61          48.38         -9.172          1.688          123.2          15.98         -79.27          76.15          112.7
    0.7191              -30.34          4.842          55.39          49.28         -9.933          1.695          111.8          12.84         -56.02          77.45          114.6
    0.7341              -29.11          4.089           50.5          50.31         -10.81          1.704          98.55          9.204         -29.06          78.95          116.7
    0.7491              -27.79          3.272          45.21          51.44         -11.77          1.713          84.21          5.264         0.1351          80.57          119.0
     0.764              -26.47          2.456          39.92          52.56         -12.73          1.723          69.87          1.324          29.33           82.2          121.3
     0.779              -25.25          1.703          35.03           53.6         -13.61          1.731          56.63         -2.316          56.29           83.7          123.5
     0.794              -24.19          1.052          30.82          54.49         -14.37          1.739          45.21         -5.455          79.54           85.0          125.3
     0.809              -23.33         0.5186          27.36          55.23         -14.99          1.745          35.83         -8.031          98.63          86.06          126.8
     0.824              -22.64        0.09416          24.61          55.81         -15.49           1.75          28.37         -10.08          113.8          86.91          128.1
    0.8389               -22.1        -0.2381          22.45          56.27         -15.88          1.753          22.54         -11.68          125.7          87.57          129.0
    0.8539              -21.68         -0.497          20.78          56.63         -16.18          1.756          17.99         -12.93          135.0          88.08          129.7
    0.8689              -21.36        -0.6993          19.46           56.9         -16.42          1.759          14.43         -13.91          142.2          88.49          130.3
    0.8839               -21.1        -0.8584          18.43          57.12          -16.6           1.76          11.64         -14.68          147.9           88.8          130.8
